<mxfile host="app.diagrams.net" agent="Mozilla/5.0 (Windows NT 10.0; Win64; x64; rv:128.0) Gecko/20100101 Firefox/128.0" version="26.0.10">
  <diagram name="Page-1" id="9wq_37SR1qbvZSWXdPos">
    <mxGraphModel dx="1434" dy="912" grid="1" gridSize="10" guides="1" tooltips="1" connect="1" arrows="1" fold="1" page="1" pageScale="1" pageWidth="1100" pageHeight="850" math="0" shadow="0">
      <root>
        <mxCell id="0" />
        <mxCell id="1" parent="0" />
        <mxCell id="62yKq-dj1JVAu3vmStfO-24" style="edgeStyle=orthogonalEdgeStyle;rounded=0;orthogonalLoop=1;jettySize=auto;html=1;exitX=0.003;exitY=0.765;exitDx=0;exitDy=0;entryX=0.5;entryY=1;entryDx=0;entryDy=0;exitPerimeter=0;" edge="1" parent="1" source="62yKq-dj1JVAu3vmStfO-22" target="62yKq-dj1JVAu3vmStfO-27">
          <mxGeometry relative="1" as="geometry">
            <mxPoint x="410" y="525" as="targetPoint" />
            <Array as="points">
              <mxPoint x="315" y="563" />
            </Array>
          </mxGeometry>
        </mxCell>
        <mxCell id="62yKq-dj1JVAu3vmStfO-46" value="Upload" style="edgeLabel;html=1;align=center;verticalAlign=middle;resizable=0;points=[];" vertex="1" connectable="0" parent="62yKq-dj1JVAu3vmStfO-24">
          <mxGeometry x="-0.2276" relative="1" as="geometry">
            <mxPoint as="offset" />
          </mxGeometry>
        </mxCell>
        <mxCell id="62yKq-dj1JVAu3vmStfO-22" value="Game Interface" style="swimlane;startSize=0;" vertex="1" parent="1">
          <mxGeometry x="480" y="165" width="380" height="520" as="geometry" />
        </mxCell>
        <mxCell id="62yKq-dj1JVAu3vmStfO-6" style="edgeStyle=orthogonalEdgeStyle;rounded=0;orthogonalLoop=1;jettySize=auto;html=1;exitX=0.5;exitY=1;exitDx=0;exitDy=0;entryX=0.5;entryY=0;entryDx=0;entryDy=0;" edge="1" parent="62yKq-dj1JVAu3vmStfO-22" source="62yKq-dj1JVAu3vmStfO-1" target="62yKq-dj1JVAu3vmStfO-2">
          <mxGeometry relative="1" as="geometry" />
        </mxCell>
        <mxCell id="62yKq-dj1JVAu3vmStfO-1" value="&lt;font style=&quot;font-size: 14px;&quot;&gt;&lt;font style=&quot;font-size: 18px;&quot;&gt;Title Screen&lt;/font&gt;&lt;br&gt;&lt;/font&gt;" style="rounded=0;whiteSpace=wrap;html=1;" vertex="1" parent="62yKq-dj1JVAu3vmStfO-22">
          <mxGeometry x="185" y="10" width="120" height="60" as="geometry" />
        </mxCell>
        <mxCell id="62yKq-dj1JVAu3vmStfO-7" style="edgeStyle=orthogonalEdgeStyle;rounded=0;orthogonalLoop=1;jettySize=auto;html=1;exitX=0.5;exitY=1;exitDx=0;exitDy=0;entryX=0.5;entryY=0;entryDx=0;entryDy=0;" edge="1" parent="62yKq-dj1JVAu3vmStfO-22" source="62yKq-dj1JVAu3vmStfO-2" target="62yKq-dj1JVAu3vmStfO-3">
          <mxGeometry relative="1" as="geometry" />
        </mxCell>
        <mxCell id="62yKq-dj1JVAu3vmStfO-13" value="Continue" style="edgeLabel;html=1;align=center;verticalAlign=middle;resizable=0;points=[];" vertex="1" connectable="0" parent="62yKq-dj1JVAu3vmStfO-7">
          <mxGeometry x="0.04" y="-1" relative="1" as="geometry">
            <mxPoint as="offset" />
          </mxGeometry>
        </mxCell>
        <mxCell id="62yKq-dj1JVAu3vmStfO-2" value="&lt;font style=&quot;font-size: 18px;&quot;&gt;Main Menu&lt;br&gt;&lt;/font&gt;" style="rounded=0;whiteSpace=wrap;html=1;" vertex="1" parent="62yKq-dj1JVAu3vmStfO-22">
          <mxGeometry x="185" y="120" width="120" height="60" as="geometry" />
        </mxCell>
        <mxCell id="62yKq-dj1JVAu3vmStfO-8" style="edgeStyle=orthogonalEdgeStyle;rounded=0;orthogonalLoop=1;jettySize=auto;html=1;exitX=0.5;exitY=1;exitDx=0;exitDy=0;entryX=0.5;entryY=0;entryDx=0;entryDy=0;" edge="1" parent="62yKq-dj1JVAu3vmStfO-22" source="62yKq-dj1JVAu3vmStfO-3" target="62yKq-dj1JVAu3vmStfO-4">
          <mxGeometry relative="1" as="geometry" />
        </mxCell>
        <mxCell id="62yKq-dj1JVAu3vmStfO-14" value="Race" style="edgeLabel;html=1;align=center;verticalAlign=middle;resizable=0;points=[];" vertex="1" connectable="0" parent="62yKq-dj1JVAu3vmStfO-8">
          <mxGeometry x="-0.12" y="5" relative="1" as="geometry">
            <mxPoint x="-5" as="offset" />
          </mxGeometry>
        </mxCell>
        <mxCell id="62yKq-dj1JVAu3vmStfO-3" value="&lt;font style=&quot;font-size: 18px;&quot;&gt;Leaderboard&lt;/font&gt;" style="rounded=0;whiteSpace=wrap;html=1;" vertex="1" parent="62yKq-dj1JVAu3vmStfO-22">
          <mxGeometry x="185" y="230" width="120" height="60" as="geometry" />
        </mxCell>
        <mxCell id="62yKq-dj1JVAu3vmStfO-9" style="edgeStyle=orthogonalEdgeStyle;rounded=0;orthogonalLoop=1;jettySize=auto;html=1;exitX=0.5;exitY=1;exitDx=0;exitDy=0;entryX=0.5;entryY=0;entryDx=0;entryDy=0;" edge="1" parent="62yKq-dj1JVAu3vmStfO-22" source="62yKq-dj1JVAu3vmStfO-4" target="62yKq-dj1JVAu3vmStfO-5">
          <mxGeometry relative="1" as="geometry" />
        </mxCell>
        <mxCell id="62yKq-dj1JVAu3vmStfO-15" value="Race ends" style="edgeLabel;html=1;align=center;verticalAlign=middle;resizable=0;points=[];" vertex="1" connectable="0" parent="62yKq-dj1JVAu3vmStfO-9">
          <mxGeometry x="-0.2" y="1" relative="1" as="geometry">
            <mxPoint x="-1" as="offset" />
          </mxGeometry>
        </mxCell>
        <mxCell id="62yKq-dj1JVAu3vmStfO-4" value="&lt;font style=&quot;font-size: 18px;&quot;&gt;Driving&lt;/font&gt;" style="rounded=0;whiteSpace=wrap;html=1;" vertex="1" parent="62yKq-dj1JVAu3vmStfO-22">
          <mxGeometry x="185" y="340" width="120" height="60" as="geometry" />
        </mxCell>
        <mxCell id="62yKq-dj1JVAu3vmStfO-16" style="edgeStyle=orthogonalEdgeStyle;rounded=0;orthogonalLoop=1;jettySize=auto;html=1;exitX=1;exitY=0.5;exitDx=0;exitDy=0;entryX=1;entryY=0.5;entryDx=0;entryDy=0;" edge="1" parent="62yKq-dj1JVAu3vmStfO-22" source="62yKq-dj1JVAu3vmStfO-5" target="62yKq-dj1JVAu3vmStfO-4">
          <mxGeometry relative="1" as="geometry">
            <Array as="points">
              <mxPoint x="335" y="480" />
              <mxPoint x="335" y="370" />
            </Array>
          </mxGeometry>
        </mxCell>
        <mxCell id="62yKq-dj1JVAu3vmStfO-17" value="Retry" style="edgeLabel;html=1;align=center;verticalAlign=middle;resizable=0;points=[];" vertex="1" connectable="0" parent="62yKq-dj1JVAu3vmStfO-16">
          <mxGeometry x="0.0133" y="-3" relative="1" as="geometry">
            <mxPoint as="offset" />
          </mxGeometry>
        </mxCell>
        <mxCell id="62yKq-dj1JVAu3vmStfO-19" style="edgeStyle=orthogonalEdgeStyle;rounded=0;orthogonalLoop=1;jettySize=auto;html=1;exitX=0;exitY=0.5;exitDx=0;exitDy=0;entryX=0.5;entryY=1;entryDx=0;entryDy=0;" edge="1" parent="62yKq-dj1JVAu3vmStfO-22" source="62yKq-dj1JVAu3vmStfO-5" target="62yKq-dj1JVAu3vmStfO-18">
          <mxGeometry relative="1" as="geometry">
            <Array as="points">
              <mxPoint x="110" y="480" />
            </Array>
          </mxGeometry>
        </mxCell>
        <mxCell id="62yKq-dj1JVAu3vmStfO-20" value="Continue" style="edgeLabel;html=1;align=center;verticalAlign=middle;resizable=0;points=[];" vertex="1" connectable="0" parent="62yKq-dj1JVAu3vmStfO-19">
          <mxGeometry x="-0.2203" relative="1" as="geometry">
            <mxPoint x="40" y="1" as="offset" />
          </mxGeometry>
        </mxCell>
        <mxCell id="62yKq-dj1JVAu3vmStfO-5" value="&lt;font style=&quot;font-size: 18px;&quot;&gt;Results&lt;/font&gt;" style="rounded=0;whiteSpace=wrap;html=1;" vertex="1" parent="62yKq-dj1JVAu3vmStfO-22">
          <mxGeometry x="185" y="450" width="120" height="60" as="geometry" />
        </mxCell>
        <mxCell id="62yKq-dj1JVAu3vmStfO-21" style="edgeStyle=orthogonalEdgeStyle;rounded=0;orthogonalLoop=1;jettySize=auto;html=1;exitX=0.5;exitY=0;exitDx=0;exitDy=0;entryX=0;entryY=0.5;entryDx=0;entryDy=0;" edge="1" parent="62yKq-dj1JVAu3vmStfO-22" source="62yKq-dj1JVAu3vmStfO-18" target="62yKq-dj1JVAu3vmStfO-2">
          <mxGeometry relative="1" as="geometry" />
        </mxCell>
        <mxCell id="62yKq-dj1JVAu3vmStfO-18" value="&lt;div&gt;&lt;font style=&quot;font-size: 18px;&quot;&gt;Results&lt;/font&gt;&lt;/div&gt;&lt;div&gt;&lt;font style=&quot;font-size: 18px;&quot;&gt;upload&lt;br&gt;&lt;/font&gt;&lt;/div&gt;" style="rounded=0;whiteSpace=wrap;html=1;" vertex="1" parent="62yKq-dj1JVAu3vmStfO-22">
          <mxGeometry x="50" y="300" width="120" height="60" as="geometry" />
        </mxCell>
        <mxCell id="62yKq-dj1JVAu3vmStfO-28" style="edgeStyle=orthogonalEdgeStyle;rounded=0;orthogonalLoop=1;jettySize=auto;html=1;exitX=0;exitY=0.5;exitDx=0;exitDy=0;entryX=-0.003;entryY=0.769;entryDx=0;entryDy=0;entryPerimeter=0;" edge="1" parent="62yKq-dj1JVAu3vmStfO-22" source="62yKq-dj1JVAu3vmStfO-18" target="62yKq-dj1JVAu3vmStfO-22">
          <mxGeometry relative="1" as="geometry">
            <Array as="points">
              <mxPoint x="30" y="330" />
              <mxPoint x="30" y="400" />
            </Array>
          </mxGeometry>
        </mxCell>
        <mxCell id="62yKq-dj1JVAu3vmStfO-33" style="edgeStyle=orthogonalEdgeStyle;rounded=0;orthogonalLoop=1;jettySize=auto;html=1;exitX=0;exitY=0.5;exitDx=0;exitDy=0;entryX=0;entryY=0.5;entryDx=0;entryDy=0;" edge="1" parent="62yKq-dj1JVAu3vmStfO-22" source="62yKq-dj1JVAu3vmStfO-22" target="62yKq-dj1JVAu3vmStfO-3">
          <mxGeometry relative="1" as="geometry">
            <Array as="points">
              <mxPoint x="80" y="260" />
              <mxPoint x="80" y="260" />
            </Array>
          </mxGeometry>
        </mxCell>
        <mxCell id="62yKq-dj1JVAu3vmStfO-31" style="edgeStyle=orthogonalEdgeStyle;rounded=0;orthogonalLoop=1;jettySize=auto;html=1;exitX=1;exitY=0.5;exitDx=0;exitDy=0;entryX=0;entryY=0.5;entryDx=0;entryDy=0;" edge="1" parent="1" source="62yKq-dj1JVAu3vmStfO-27" target="62yKq-dj1JVAu3vmStfO-22">
          <mxGeometry relative="1" as="geometry" />
        </mxCell>
        <mxCell id="62yKq-dj1JVAu3vmStfO-45" value="Download" style="edgeLabel;html=1;align=center;verticalAlign=middle;resizable=0;points=[];" vertex="1" connectable="0" parent="62yKq-dj1JVAu3vmStfO-31">
          <mxGeometry x="-0.1714" y="-2" relative="1" as="geometry">
            <mxPoint as="offset" />
          </mxGeometry>
        </mxCell>
        <mxCell id="62yKq-dj1JVAu3vmStfO-27" value="&lt;div&gt;&lt;font style=&quot;font-size: 18px;&quot;&gt;Leaderboard API&lt;/font&gt;&lt;font style=&quot;font-size: 16px;&quot;&gt;&lt;font&gt;&lt;br&gt;&lt;/font&gt;&lt;/font&gt;&lt;/div&gt;" style="rounded=0;whiteSpace=wrap;html=1;" vertex="1" parent="1">
          <mxGeometry x="240" y="455" width="150" height="60" as="geometry" />
        </mxCell>
        <mxCell id="62yKq-dj1JVAu3vmStfO-37" style="edgeStyle=orthogonalEdgeStyle;rounded=0;orthogonalLoop=1;jettySize=auto;html=1;exitX=0.5;exitY=0;exitDx=0;exitDy=0;entryX=0.5;entryY=1;entryDx=0;entryDy=0;anchorPointDirection=1;startArrow=classic;startFill=1;" edge="1" parent="1" source="62yKq-dj1JVAu3vmStfO-27" target="62yKq-dj1JVAu3vmStfO-36">
          <mxGeometry relative="1" as="geometry">
            <mxPoint x="115" y="495" as="sourcePoint" />
          </mxGeometry>
        </mxCell>
        <mxCell id="62yKq-dj1JVAu3vmStfO-47" value="&lt;div&gt;Data validation&lt;/div&gt;&lt;div&gt;and filtering&lt;br&gt;&lt;/div&gt;" style="edgeLabel;html=1;align=center;verticalAlign=middle;resizable=0;points=[];" vertex="1" connectable="0" parent="62yKq-dj1JVAu3vmStfO-37">
          <mxGeometry x="0.0552" y="2" relative="1" as="geometry">
            <mxPoint x="2" y="2" as="offset" />
          </mxGeometry>
        </mxCell>
        <mxCell id="62yKq-dj1JVAu3vmStfO-36" value="&lt;div&gt;&lt;font style=&quot;font-size: 18px;&quot;&gt;Leaderboard&lt;/font&gt;&lt;/div&gt;&lt;div&gt;&lt;font style=&quot;font-size: 18px;&quot;&gt;database&lt;br&gt;&lt;/font&gt;&lt;/div&gt;" style="rounded=0;whiteSpace=wrap;html=1;" vertex="1" parent="1">
          <mxGeometry x="240" y="315" width="150" height="60" as="geometry" />
        </mxCell>
        <mxCell id="62yKq-dj1JVAu3vmStfO-39" value="&lt;div&gt;&lt;font style=&quot;font-size: 18px;&quot;&gt;Web Interface&lt;/font&gt;&lt;/div&gt;&lt;div&gt;&lt;font style=&quot;font-size: 18px;&quot;&gt;(admin)&lt;br&gt;&lt;/font&gt;&lt;/div&gt;" style="rounded=0;whiteSpace=wrap;html=1;" vertex="1" parent="1">
          <mxGeometry x="255" y="175" width="120" height="60" as="geometry" />
        </mxCell>
        <mxCell id="62yKq-dj1JVAu3vmStfO-43" value="" style="html=1;labelBackgroundColor=#ffffff;startArrow=classic;startFill=1;startSize=6;endArrow=classic;endFill=1;endSize=6;jettySize=auto;orthogonalLoop=1;strokeWidth=1;fontSize=14;rounded=0;entryX=0.5;entryY=1;entryDx=0;entryDy=0;exitX=0.5;exitY=0;exitDx=0;exitDy=0;" edge="1" parent="1" source="62yKq-dj1JVAu3vmStfO-36" target="62yKq-dj1JVAu3vmStfO-39">
          <mxGeometry width="60" height="60" relative="1" as="geometry">
            <mxPoint x="110" y="345" as="sourcePoint" />
            <mxPoint x="170" y="285" as="targetPoint" />
          </mxGeometry>
        </mxCell>
        <mxCell id="62yKq-dj1JVAu3vmStfO-44" value="&lt;div&gt;Data retrieval&lt;/div&gt;&lt;div&gt;and table alterations&lt;/div&gt;&lt;div&gt;(deletions)&lt;br&gt;&lt;/div&gt;" style="edgeLabel;html=1;align=center;verticalAlign=middle;resizable=0;points=[];" vertex="1" connectable="0" parent="62yKq-dj1JVAu3vmStfO-43">
          <mxGeometry x="0.125" y="2" relative="1" as="geometry">
            <mxPoint x="2" y="6" as="offset" />
          </mxGeometry>
        </mxCell>
      </root>
    </mxGraphModel>
  </diagram>
</mxfile>
